<svg xmlns="http://www.w3.org/2000/svg" viewBox="0 0 2943 1200" preserveAspectRatio="xMidYMid meet">
  <title>Zufico</title>
  <g transform="translate(0, 930) scale(1, -1)">
    <g>
      <path d="M23 0V138L335 519V522H23V660H522V521L211 141V138H527V0Z" transform="translate(60, 0)" fill="#1C1A15" />
      <path d="M200 -14Q114 -14 72.5 46.0Q31 106 31 230V528H193V232Q193 174 209.5 151.0Q226 128 257 128Q279 128 297.5 139.5Q316 151 330.0 174.5Q344 198 351.5 235.0Q359 272 359 324V528H521V238V0H383V206H376Q370 129 349.0 80.5Q328 32 291.0 9.0Q254 -14 200 -14Z" transform="translate(610, 0)" fill="#1C1A15" />
    </g>
    <g transform="translate(1472.0 0) skewX(-12) translate(-1472.0 0)">
      <path d="M84 0V323H11V439L172 428V436Q111 443 80.0 465.0Q49 487 38.5 515.0Q28 543 28 566Q28 611 52.5 644.5Q77 678 120.5 696.0Q164 714 219 714Q264 714 299.5 702.0Q335 690 364 667L351 519Q324 538 299.0 547.5Q274 557 248 557Q218 557 198.5 544.0Q179 531 179 503Q179 488 187.0 475.0Q195 462 212.5 454.5Q230 447 260 447H360V323H244V0Z" transform="translate(1167, 0)" fill="#1C1A15" />
      <path d="M36 0V528H198V0ZM116 566Q70 566 45.5 585.5Q21 605 21 642Q21 680 45.5 699.5Q70 719 116 719Q163 719 187.5 699.0Q212 679 212 642Q212 606 187.5 586.0Q163 566 116 566Z" transform="translate(1543, 0)" fill="#1C1A15" />
    </g>
    <g>
      <path d="M289 -14Q218 -14 167.0 7.5Q116 29 84.0 67.0Q52 105 37.0 154.0Q22 203 22 258Q22 314 37.0 364.5Q52 415 83.5 455.5Q115 496 165.5 519.0Q216 542 287 542Q371 542 422.5 510.5Q474 479 494.5 429.0Q515 379 506 321L366 310Q368 346 358.5 369.5Q349 393 330.0 404.5Q311 416 284 416Q260 416 241.5 407.0Q223 398 210.5 379.5Q198 361 191.5 333.0Q185 305 185 266Q185 216 196.5 180.0Q208 144 231.5 125.0Q255 106 291 106Q328 106 347.0 124.0Q366 142 372.0 169.5Q378 197 374 224L523 217Q529 173 519.0 131.5Q509 90 480.5 57.0Q452 24 404.5 5.0Q357 -14 289 -14Z" transform="translate(1777, 0)" fill="#1C1A15" />
      <path d="M282 -14Q206 -14 147.0 16.5Q88 47 55.0 108.5Q22 170 22 263Q22 360 56.5 421.5Q91 483 150.5 512.5Q210 542 285 542Q363 542 421.5 511.5Q480 481 512.5 419.5Q545 358 545 264Q545 167 510.5 105.5Q476 44 416.5 15.0Q357 -14 282 -14ZM286 105Q317 105 338.0 122.5Q359 140 370.0 174.0Q381 208 381 255Q381 307 369.0 342.5Q357 378 334.5 397.0Q312 416 280 416Q250 416 229.0 398.5Q208 381 197.0 347.0Q186 313 186 265Q186 189 212.5 147.0Q239 105 286 105Z" transform="translate(2316, 0)" fill="#1C1A15" />
    </g>
  </g>
</svg>
